<svg width="66" height="73" viewBox="0 0 66 73" fill="none" xmlns="http://www.w3.org/2000/svg">
<path d="M6.81582 32.7105C0.707079 30.1839 -1.2976 3.12549 0.810652 2.46181C2.9189 1.79812 11.9277 13.6586 15.9534 18.7915C23.0822 10.9405 41.7995 9.66897 50.5855 18.4052C50.6979 18.2655 63.7488 2.28873 65.2758 2.46181C66.8028 2.63488 65.904 30.6595 59.1602 32.7105C63.5042 37.6711 66.9159 47.4914 65.7794 47.9139C64.6428 48.3363 62.8303 45.8083 60.8869 44.6759C63.1962 51.0926 64.8193 59.052 63.6207 59.1379C62.4221 59.2237 61.8872 56.2031 61.1745 55.6123C59.6761 60.1586 55.7485 66.4922 54.6991 66.3328C53.6498 66.1733 54.8238 63.3646 54.6269 62.4474C41.5243 76.6335 24.6664 76.1136 11.3131 62.4474C11.2606 63.5172 12.4387 66.2994 11.3131 66.3328C10.1874 66.3662 6.52895 60.4727 4.66056 55.5203C4.66056 55.5203 3.03678 60.2281 2.37378 58.9239C1.71078 57.6197 1.67535 53.7194 5.28404 44.5273C5.28404 44.5273 1.15953 48.908 0.276435 47.9847C-0.606659 47.0614 2.92708 37.9743 6.81514 32.7098L6.81582 32.7105Z" fill="white"/>
</svg>
